<svg width="15" height="15" viewBox="0 0 15 15" fill="none" xmlns="http://www.w3.org/2000/svg">
<path d="M7.49993 5.59953C7.13498 5.59953 6.77822 5.70686 6.47478 5.90796C6.17133 6.10905 5.93482 6.39488 5.79516 6.72928C5.65549 7.06369 5.61895 7.43166 5.69015 7.78667C5.76135 8.14168 5.93709 8.46777 6.19515 8.72372C6.45321 8.97966 6.78201 9.15396 7.13995 9.22458C7.49789 9.29519 7.8689 9.25895 8.20608 9.12043C8.54325 8.98192 8.83144 8.74735 9.03419 8.44639C9.23695 8.14543 9.34517 7.7916 9.34517 7.42964C9.34517 7.1893 9.29744 6.95132 9.20471 6.72928C9.11198 6.50724 8.97606 6.30549 8.80471 6.13555C8.63337 5.96561 8.42995 5.83081 8.20608 5.73884C7.9822 5.64686 7.74225 5.59953 7.49993 5.59953ZM14.8883 3.79156C14.8844 3.22169 14.7786 2.65702 14.5758 2.1238C14.4265 1.73362 14.1954 1.37928 13.8979 1.08417C13.6003 0.78906 13.243 0.559883 12.8496 0.411765C12.312 0.210648 11.7427 0.105709 11.1681 0.101827C10.2083 0.0501708 9.92553 0.0501709 7.49993 0.0501709C5.07434 0.0501709 4.7916 0.0501708 3.83178 0.101827C3.25719 0.105709 2.68786 0.210648 2.15023 0.411765C1.75682 0.559883 1.39956 0.78906 1.10201 1.08417C0.804456 1.37928 0.573385 1.73362 0.424042 2.1238C0.221262 2.65702 0.115456 3.22169 0.111542 3.79156C0.0594584 4.74351 0.0594585 5.02393 0.0594585 7.42964C0.0594585 9.83534 0.0594584 10.1158 0.111542 11.0677C0.119551 11.6396 0.225213 12.206 0.424042 12.7428C0.572723 13.1312 0.803602 13.4835 1.10113 13.776C1.3974 14.0729 1.75543 14.302 2.15023 14.4475C2.68786 14.6486 3.25719 14.7536 3.83178 14.7574C4.7916 14.8091 5.07434 14.8091 7.49993 14.8091C9.92553 14.8091 10.2083 14.8091 11.1681 14.7574C11.7427 14.7536 12.312 14.6486 12.8496 14.4475C13.2444 14.302 13.6025 14.0729 13.8987 13.776C14.1963 13.4835 14.4271 13.1312 14.5758 12.7428C14.7784 12.207 14.8842 11.64 14.8883 11.0677C14.9404 10.1158 14.9404 9.83534 14.9404 7.42964C14.9404 5.02393 14.9404 4.74351 14.8883 3.79156ZM12.9984 9.69513C12.9746 10.1505 12.8766 10.5991 12.7083 11.0234C12.5638 11.3774 12.3491 11.699 12.0768 11.969C11.8046 12.239 11.4804 12.452 11.1234 12.5953C10.6915 12.7529 10.2367 12.8401 9.77672 12.8535H5.22315C4.76313 12.8401 4.30833 12.7529 3.87642 12.5953C3.50745 12.4593 3.17425 12.2423 2.90172 11.9606C2.63213 11.6959 2.42393 11.3761 2.2916 11.0234C2.13205 10.5955 2.04652 10.1439 2.03863 9.68775V5.17152C2.04652 4.71534 2.13205 4.26376 2.2916 3.83584C2.42872 3.46989 2.64746 3.13942 2.93148 2.86913C3.19959 2.60319 3.52171 2.39691 3.87642 2.26401C4.30833 2.10639 4.76313 2.01917 5.22315 2.00573H9.77672C10.2367 2.01917 10.6915 2.10639 11.1234 2.26401C11.4924 2.4 11.8256 2.61695 12.0981 2.89864C12.3677 3.16338 12.5759 3.4832 12.7083 3.83584C12.8672 4.2642 12.9551 4.71527 12.9687 5.17152V7.42964C12.9687 8.9498 13.0208 9.10477 12.9984 9.68775V9.69513ZM11.808 4.20481C11.7194 3.96644 11.5797 3.74997 11.3986 3.57033C11.2175 3.3907 10.9992 3.25217 10.7589 3.1643C10.4289 3.05085 10.0813 2.9959 9.73208 3.00196H5.26779C4.9168 3.00536 4.56918 3.07032 4.24101 3.19382C4.00435 3.27769 3.7884 3.41057 3.60751 3.58361C3.42663 3.75665 3.28495 3.96589 3.1919 4.19743C3.08385 4.52609 3.03106 4.87014 3.03565 5.2158V9.64347C3.04303 9.99119 3.10839 10.3353 3.2291 10.6618C3.31769 10.9002 3.45736 11.1167 3.63849 11.2963C3.81961 11.476 4.03787 11.6145 4.27821 11.7023C4.59567 11.8181 4.92974 11.8829 5.26779 11.8942H9.73208C10.0831 11.8908 10.4307 11.8259 10.7589 11.7023C10.9992 11.6145 11.2175 11.476 11.3986 11.2963C11.5797 11.1167 11.7194 10.9002 11.808 10.6618C11.9325 10.3364 11.998 9.99159 12.0014 9.64347V5.2158C12.0016 4.86734 11.936 4.52192 11.808 4.19743V4.20481ZM7.49993 10.2486C7.12703 10.2486 6.7578 10.1756 6.41337 10.0339C6.06895 9.89211 5.75611 9.68435 5.49278 9.42249C5.22944 9.16063 5.02079 8.84981 4.87876 8.50784C4.73674 8.16588 4.66413 7.79948 4.66511 7.42964C4.66511 6.87178 4.832 6.32648 5.14464 5.86274C5.45728 5.39901 5.90162 5.0377 6.42141 4.82456C6.9412 4.61142 7.51307 4.55603 8.06461 4.6654C8.61616 4.77477 9.12259 5.04398 9.51979 5.43896C9.91699 5.83393 10.1871 6.33691 10.2959 6.88422C10.4048 7.43153 10.3474 7.99856 10.1311 8.51353C9.91488 9.02849 9.54942 9.46824 9.08103 9.7771C8.61265 10.086 8.06239 10.2501 7.49993 10.2486ZM10.4761 5.16414C10.3116 5.14687 10.1594 5.06985 10.0488 4.9479C9.93818 4.82595 9.87697 4.66772 9.87697 4.50368C9.87697 4.33964 9.93818 4.1814 10.0488 4.05946C10.1594 3.93751 10.3116 3.86048 10.4761 3.84322C10.6406 3.86048 10.7928 3.93751 10.9034 4.05946C11.0141 4.1814 11.0753 4.33964 11.0753 4.50368C11.0753 4.66772 11.0141 4.82595 10.9034 4.9479C10.7928 5.06985 10.6406 5.14687 10.4761 5.16414Z" fill="#F8F8F8"/>
</svg>
