<svg width="16" height="17" viewBox="0 0 16 17" fill="none" xmlns="http://www.w3.org/2000/svg">
<path d="M7.92857 0.681213C3.61426 0.681213 0.11607 4.15071 0.11607 8.42965C0.11607 12.7086 3.61426 16.1781 7.92857 16.1781C12.2429 16.1781 15.7411 12.7086 15.7411 8.42965C15.7411 4.15071 12.2429 0.681213 7.92857 0.681213ZM11.6831 6.52194C11.6883 6.60323 11.6883 6.68798 11.6883 6.771C11.6883 9.31 9.7387 12.2347 6.17599 12.2347C5.07736 12.2347 4.05894 11.9182 3.20096 11.3734C3.35791 11.3907 3.50788 11.3976 3.66832 11.3976C4.57512 11.3976 5.40869 11.0932 6.0731 10.5778C5.2221 10.5605 4.50711 10.007 4.26297 9.246C4.56117 9.28924 4.82973 9.28924 5.13665 9.21141C4.69846 9.12312 4.30461 8.88709 4.022 8.54343C3.73939 8.19976 3.58546 7.76966 3.58635 7.32619V7.30198C3.8427 7.44553 4.14439 7.53374 4.46003 7.54584C4.19469 7.37046 3.97708 7.13284 3.8265 6.85407C3.67593 6.5753 3.59703 6.26398 3.59682 5.94773C3.59682 5.58971 3.69099 5.26282 3.86014 4.97917C4.34651 5.573 4.95342 6.05867 5.64143 6.40462C6.32945 6.75057 7.08316 6.94907 7.85358 6.9872C7.5798 5.68138 8.56333 4.62461 9.74567 4.62461C10.3037 4.62461 10.8059 4.85638 11.1599 5.22996C11.5977 5.14867 12.0162 4.98609 12.3894 4.76817C12.2446 5.21267 11.9412 5.58798 11.5384 5.82493C11.929 5.78342 12.3057 5.67619 12.6544 5.52572C12.3911 5.90968 12.0615 6.2504 11.6831 6.52194Z" fill="#F8F8F8"/>
</svg>
